<?xml version="1.0" encoding="utf-8"?>
<!-- Generator: Adobe Illustrator 23.0.3, SVG Export Plug-In . SVG Version: 6.00 Build 0)  -->
<svg version="1.1" id="Camada_1" xmlns="http://www.w3.org/2000/svg" xmlns:xlink="http://www.w3.org/1999/xlink" x="0px" y="0px"
	 viewBox="0 0 3000 2000" style="enable-background:new 0 0 3000 2000;" xml:space="preserve">
<style type="text/css">
	.st0{fill:#D0D0D0;}
	.st1{fill:#FFFFFF;}
</style>
<path class="st0" d="M127,0c0,0-22,80,0,126s94,127,208,189s304,229,398,532s372,685,894,752s1085,240,1299,401H0V0H127z"/>
<path class="st1" d="M2917.9,2000H0V2h52.1c-4.5,19.2-17.3,82.7,1.4,121.8C75.8,170.3,148.6,252.3,264,315
	c115.4,62.7,307.6,231.7,402.7,538.3c95.1,306.6,376.4,693.1,904.6,760.9C2077.9,1679.3,2678.7,1843,2917.9,2000z"/>
</svg>
